<svg <svg width="256" height="30" viewBox="0 0 256 30" fill="none" xmlns="http://www.w3.org/2000/svg">
<g clip-path="url(#clip0_1049_20378)">
<path d="M14.3467 28.6537C10.1301 28.6537 6.33809 26.8369 3.71319 23.9447C6.60116 22.2267 8.10424 18.7415 8.44747 17.86C9.09097 17.682 9.67773 17.308 10.1121 16.802C10.5225 16.3385 10.7585 15.759 11.0357 15.214C11.3411 14.568 11.657 13.925 11.9219 13.261C11.649 13.257 11.3761 13.2555 11.1033 13.2555C10.9451 13.2555 10.7867 13.256 10.6283 13.256C10.4694 13.257 10.3106 13.257 10.1516 13.257C9.9396 13.257 9.7276 13.2565 9.51556 13.254C9.62316 13.087 9.76085 12.9435 9.88111 12.786C11.3722 10.939 12.8593 9.0895 14.3528 7.244C14.503 7.3885 14.6166 7.5655 14.7531 7.7225C16.2376 9.568 17.7327 11.406 19.2111 13.256C19.0702 13.2565 18.9296 13.257 18.7888 13.257C18.6142 13.257 18.4395 13.2565 18.2649 13.256C18.0916 13.256 17.9183 13.2555 17.745 13.2555C17.4295 13.2555 17.114 13.2565 16.7987 13.2605C16.8574 13.451 16.9523 13.6265 17.0301 13.809C17.3691 14.564 17.7248 15.3115 18.1003 16.049C18.4409 16.7195 18.9869 17.293 19.6656 17.6265C19.8025 17.6955 19.9437 17.7545 20.0879 17.8035C20.1882 18.087 21.6731 22.1486 24.8787 24.0554C24.8787 24.0554 25.3139 23.5828 25.7645 23.0031C23.1435 26.4375 19.0043 28.6537 14.3467 28.6537ZM3.71319 23.9447C3.27388 23.4607 2.86707 22.9463 2.49665 22.4054C3.02629 23.1666 3.69166 23.9205 3.71319 23.9447ZM25.611 22.2463C24.4715 22.2463 22.2246 21.6756 20.0918 17.805C20.4644 17.932 20.8575 17.9935 21.2512 17.9935C22.012 17.9935 22.7752 17.7635 23.3993 17.3275C24.0402 16.8865 24.5255 16.2215 24.7354 15.4715C24.9223 14.8475 24.8867 14.187 24.8461 13.545C24.7254 11.9055 24.2042 10.299 23.3467 8.896C22.0678 6.7905 20.0261 5.159 17.6832 4.3875C16.6131 4.031 15.4854 3.851 14.3571 3.851C13.5902 3.851 12.8227 3.9345 12.074 4.1015C10.7834 4.386 9.55096 4.927 8.45959 5.6715C6.90588 6.7285 5.64107 8.205 4.83996 9.9035C4.15676 11.344 3.81333 12.9435 3.84618 14.537C3.86495 15.376 4.18294 16.2115 4.75935 16.826C5.4484 17.575 6.46447 17.992 7.47878 17.992C7.77704 17.992 8.0751 17.956 8.36476 17.882C8.37727 17.8785 8.38979 17.8755 8.40251 17.872C6.30349 21.5613 4.1155 22.1117 2.99614 22.1117C2.51993 22.1117 2.23689 22.0119 2.23689 22.0119C2.2424 22.0207 2.24785 22.0295 2.25331 22.0383C0.826739 19.812 0 17.166 0 14.327C0 6.4145 6.42321 0 14.3467 0C22.2702 0 28.6936 6.4145 28.6936 14.327C28.6936 17.2125 27.8397 19.898 26.3699 22.1468C26.3699 22.1468 26.0872 22.2463 25.611 22.2463Z" fill="url(#paint0_linear_1049_20378)"/>
<path d="M14.3467 28.6537C10.1301 28.6537 6.33809 26.8369 3.71319 23.9447C6.60116 22.2267 8.10424 18.7415 8.44747 17.86C9.09097 17.682 9.67773 17.308 10.1121 16.802C10.5225 16.3385 10.7585 15.759 11.0357 15.214C11.3411 14.568 11.657 13.925 11.9219 13.261C11.649 13.257 11.3761 13.2555 11.1033 13.2555C10.9451 13.2555 10.7867 13.256 10.6283 13.256C10.4694 13.257 10.3106 13.257 10.1516 13.257C9.9396 13.257 9.7276 13.2565 9.51556 13.254C9.62316 13.087 9.76085 12.9435 9.88111 12.786C11.3722 10.939 12.8593 9.0895 14.3528 7.244C14.503 7.3885 14.6166 7.5655 14.7531 7.7225C16.2376 9.568 17.7327 11.406 19.2111 13.256C19.0702 13.2565 18.9296 13.257 18.7888 13.257C18.6142 13.257 18.4395 13.2565 18.2649 13.256C18.0916 13.256 17.9183 13.2555 17.745 13.2555C17.4295 13.2555 17.114 13.2565 16.7987 13.2605C16.8574 13.451 16.9523 13.6265 17.0301 13.809C17.3691 14.564 17.7248 15.3115 18.1003 16.049C18.4409 16.7195 18.9869 17.293 19.6656 17.6265C19.8025 17.6955 19.9437 17.7545 20.0879 17.8035C20.1882 18.087 21.6731 22.1486 24.8787 24.0554C24.8787 24.0554 25.3139 23.5828 25.7645 23.0031C23.1435 26.4375 19.0043 28.6537 14.3467 28.6537ZM3.71319 23.9447C3.27388 23.4607 2.86707 22.9463 2.49665 22.4054C3.02629 23.1666 3.69166 23.9205 3.71319 23.9447ZM25.611 22.2463C24.4715 22.2463 22.2246 21.6756 20.0918 17.805C20.4644 17.932 20.8575 17.9935 21.2512 17.9935C22.012 17.9935 22.7752 17.7635 23.3993 17.3275C24.0402 16.8865 24.5255 16.2215 24.7354 15.4715C24.9223 14.8475 24.8867 14.187 24.8461 13.545C24.7254 11.9055 24.2042 10.299 23.3467 8.896C22.0678 6.7905 20.0261 5.159 17.6832 4.3875C16.6131 4.031 15.4854 3.851 14.3571 3.851C13.5902 3.851 12.8227 3.9345 12.074 4.1015C10.7834 4.386 9.55096 4.927 8.45959 5.6715C6.90588 6.7285 5.64107 8.205 4.83996 9.9035C4.15676 11.344 3.81333 12.9435 3.84618 14.537C3.86495 15.376 4.18294 16.2115 4.75935 16.826C5.4484 17.575 6.46447 17.992 7.47878 17.992C7.77704 17.992 8.0751 17.956 8.36476 17.882C8.37727 17.8785 8.38979 17.8755 8.40251 17.872C6.30349 21.5613 4.1155 22.1117 2.99614 22.1117C2.51993 22.1117 2.23689 22.0119 2.23689 22.0119C2.2424 22.0207 2.24785 22.0295 2.25331 22.0383C0.826739 19.812 0 17.166 0 14.327C0 6.4145 6.42321 0 14.3467 0C22.2702 0 28.6936 6.4145 28.6936 14.327C28.6936 17.2125 27.8397 19.898 26.3699 22.1468C26.3699 22.1468 26.0872 22.2463 25.611 22.2463Z" fill="url(#paint1_linear_1049_20378)"/>
<path d="M14.3566 11.9392C14.4568 11.9052 14.5632 11.9212 14.6668 11.9257C14.6733 12.0322 14.688 12.1407 14.6665 12.2472C14.5612 12.2467 14.4564 12.2472 14.3518 12.2452C14.3506 12.1427 14.3551 12.0412 14.3566 11.9392Z" fill="white"/>
<path d="M14.3451 12.3692C14.4587 12.3632 14.5732 12.3567 14.686 12.3777C14.6921 12.5077 14.6987 12.6377 14.6971 12.7677C14.5763 12.7707 14.4556 12.7702 14.3351 12.7667C14.3275 12.6342 14.3351 12.5012 14.3451 12.3692Z" fill="white"/>
<path d="M14.316 12.9362C14.443 12.9037 14.5744 12.9187 14.7037 12.9252C14.7176 13.0957 14.7229 13.2662 14.7252 13.4372C14.5852 13.4407 14.4453 13.4412 14.3053 13.4402C14.3018 13.2717 14.3133 13.1042 14.316 12.9362Z" fill="white"/>
<path d="M14.2935 13.6403C14.4398 13.6308 14.5863 13.6293 14.7326 13.6423C14.74 13.8698 14.7573 14.0978 14.7534 14.3258C14.5906 14.3283 14.4279 14.3293 14.2656 14.3233C14.274 14.0958 14.279 13.8678 14.2935 13.6403Z" fill="white"/>
<path d="M14.2581 14.5977C14.4292 14.5892 14.6011 14.5842 14.7723 14.6012C14.7805 14.9212 14.8092 15.2412 14.8012 15.5617C14.6082 15.5612 14.4151 15.5637 14.2227 15.5592C14.2262 15.2387 14.2434 14.9182 14.2581 14.5977Z" fill="white"/>
<path d="M14.2012 15.9704L14.2247 15.9479C14.423 15.9334 14.6223 15.9404 14.8208 15.9479C14.8396 16.4289 14.8703 16.9099 14.8723 17.3914C14.6299 17.3924 14.387 17.3949 14.1445 17.3894C14.1632 16.9164 14.1785 16.4434 14.2012 15.9704Z" fill="white"/>
<path d="M14.1167 17.9958C14.377 17.9698 14.6395 17.9843 14.901 17.9858C14.9329 18.7843 14.9708 19.5833 14.9888 20.3823C14.6686 20.3853 14.3475 20.3903 14.0273 20.3793C14.0537 19.5843 14.094 18.7903 14.1167 17.9958Z" fill="white"/>
<path d="M13.985 21.4436C14.3275 21.4337 14.6713 21.4323 15.0138 21.4426L15.0386 21.4651C15.0821 22.4563 15.1171 23.4477 15.157 24.4393C15.1618 24.6604 15.1869 24.8809 15.1722 25.1024C14.7394 25.1204 14.3048 25.1331 13.8729 25.0977L13.8477 25.0395C13.888 23.8409 13.9431 22.6426 13.985 21.4436Z" fill="white"/>
<path d="M25.7656 23.0028C25.9772 22.7255 26.1795 22.4393 26.371 22.1465C26.1953 22.4301 25.9786 22.7286 25.7656 23.0028Z" fill="url(#paint2_linear_1049_20378)"/>
<path d="M24.8806 24.0546C21.675 22.1478 20.1901 18.0862 20.0898 17.8027L20.0937 17.8042C22.2265 21.6748 24.4734 22.2455 25.6129 22.2455C26.0891 22.2455 26.3718 22.146 26.3718 22.146C26.1803 22.4388 25.978 22.725 25.7664 23.0023C25.3158 23.582 24.8806 24.0546 24.8806 24.0546Z" fill="url(#paint3_linear_1049_20378)"/>
<path d="M2.49725 22.4062C2.41158 22.283 2.32922 22.1598 2.25391 22.0391C2.33292 22.1625 2.41449 22.2855 2.49725 22.4062Z" fill="url(#paint4_linear_1049_20378)"/>
<path d="M3.71458 23.9441C3.69305 23.9199 3.02768 23.166 2.49804 22.4048C2.41528 22.2841 2.33371 22.1611 2.2547 22.0377C2.24924 22.0289 2.24379 22.0201 2.23828 22.0113C2.23828 22.0113 2.52132 22.1111 2.99753 22.1111C4.11689 22.1111 6.30488 21.5607 8.4039 17.8714C8.41897 17.8674 8.43384 17.8634 8.44886 17.8594C8.10563 18.7409 6.60255 22.2261 3.71458 23.9441Z" fill="url(#paint5_linear_1049_20378)"/>
<path d="M33.1953 2.63281H38.8888L49.7645 20.0898H49.8377V2.63281H55.2031V28.6551H49.4726L38.6336 11.2343H38.5602V28.6551H33.1953V2.63281Z" fill="url(#paint6_linear_1049_20378)"/>
<path d="M33.1953 2.63281H38.8888L49.7645 20.0898H49.8377V2.63281H55.2031V28.6551H49.4726L38.6336 11.2343H38.5602V28.6551H33.1953V2.63281Z" fill="url(#paint7_linear_1049_20378)"/>
<path d="M65.5427 24.2088H71.6737C73.9368 24.2088 75.9081 23.4797 75.9081 20.7828C75.9081 18.1223 74.2287 17.0653 71.7833 17.0653H65.5427V24.2088ZM65.5427 13.1658H71.3457C73.353 13.1658 74.8491 12.2548 74.8491 10.0678C74.8491 7.58931 72.9515 7.07931 70.9076 7.07931H65.5427V13.1658ZM59.8125 2.63281H72.0752C77.0391 2.63281 80.3968 4.23631 80.3968 9.08381C80.3968 11.6348 79.1195 13.4203 76.8564 14.5138C80.0318 15.4248 81.6375 17.8668 81.6375 21.1103C81.6375 26.3951 77.1488 28.6551 72.4408 28.6551H59.8125V2.63281Z" fill="url(#paint8_linear_1049_20378)"/>
<path d="M65.5427 24.2088H71.6737C73.9368 24.2088 75.9081 23.4797 75.9081 20.7828C75.9081 18.1223 74.2287 17.0653 71.7833 17.0653H65.5427V24.2088ZM65.5427 13.1658H71.3457C73.353 13.1658 74.8491 12.2548 74.8491 10.0678C74.8491 7.58931 72.9515 7.07931 70.9076 7.07931H65.5427V13.1658ZM59.8125 2.63281H72.0752C77.0391 2.63281 80.3968 4.23631 80.3968 9.08381C80.3968 11.6348 79.1195 13.4203 76.8564 14.5138C80.0318 15.4248 81.6375 17.8668 81.6375 21.1103C81.6375 26.3951 77.1488 28.6551 72.4408 28.6551H59.8125V2.63281Z" fill="url(#paint9_linear_1049_20378)"/>
<path d="M96.4392 24.464C101.586 24.464 103.519 20.0902 103.519 15.7537C103.519 11.1977 101.586 6.82417 96.4392 6.82417C91.2936 6.82417 89.3594 11.1977 89.3594 15.7537C89.3594 20.0902 91.2936 24.464 96.4392 24.464ZM96.4392 2.01367C104.505 2.01367 109.249 8.02716 109.249 15.7537C109.249 23.2613 104.505 29.275 96.4392 29.275C88.374 29.275 83.6289 23.2613 83.6289 15.7537C83.6289 8.02716 88.374 2.01367 96.4392 2.01367Z" fill="url(#paint10_linear_1049_20378)"/>
<path d="M96.4392 24.464C101.586 24.464 103.519 20.0902 103.519 15.7537C103.519 11.1977 101.586 6.82417 96.4392 6.82417C91.2936 6.82417 89.3594 11.1977 89.3594 15.7537C89.3594 20.0902 91.2936 24.464 96.4392 24.464ZM96.4392 2.01367C104.505 2.01367 109.249 8.02716 109.249 15.7537C109.249 23.2613 104.505 29.275 96.4392 29.275C88.374 29.275 83.6289 23.2613 83.6289 15.7537C83.6289 8.02716 88.374 2.01367 96.4392 2.01367Z" fill="url(#paint11_linear_1049_20378)"/>
<path d="M118.105 18.5958H124.857L121.572 9.04731H121.499L118.105 18.5958ZM118.652 2.63281H124.528L134.273 28.6551H128.324L126.353 22.8599H116.609L114.564 28.6551H108.762L118.652 2.63281Z" fill="url(#paint12_linear_1049_20378)"/>
<path d="M118.105 18.5958H124.857L121.572 9.04731H121.499L118.105 18.5958ZM118.652 2.63281H124.528L134.273 28.6551H128.324L126.353 22.8599H116.609L114.564 28.6551H108.762L118.652 2.63281Z" fill="url(#paint13_linear_1049_20378)"/>
<path d="M141.898 14.4053H148.175C150.73 14.4053 152.117 13.3113 152.117 10.6873C152.117 8.17232 150.73 7.07931 148.175 7.07931H141.898V14.4053ZM136.168 2.63281H150.219C154.891 2.63281 157.847 5.87682 157.847 9.81282C157.847 12.8743 156.606 15.1703 153.723 16.3363V16.4093C156.534 17.1383 157.336 19.8718 157.519 22.4957C157.628 24.1359 157.591 27.197 158.613 28.6551H152.884C152.19 27.0148 152.263 24.5002 151.971 22.4224C151.57 19.6893 150.511 18.4863 147.628 18.4863H141.898V28.6551H136.168V2.63281Z" fill="url(#paint14_linear_1049_20378)"/>
<path d="M141.898 14.4053H148.175C150.73 14.4053 152.117 13.3113 152.117 10.6873C152.117 8.17232 150.73 7.07931 148.175 7.07931H141.898V14.4053ZM136.168 2.63281H150.219C154.891 2.63281 157.847 5.87682 157.847 9.81282C157.847 12.8743 156.606 15.1703 153.723 16.3363V16.4093C156.534 17.1383 157.336 19.8718 157.519 22.4957C157.628 24.1359 157.591 27.197 158.613 28.6551H152.884C152.19 27.0148 152.263 24.5002 151.971 22.4224C151.57 19.6893 150.511 18.4863 147.628 18.4863H141.898V28.6551H136.168V2.63281Z" fill="url(#paint15_linear_1049_20378)"/>
<path d="M167.714 23.8439H172.823C176.144 23.8439 179.319 21.8033 179.319 16.0448C179.319 10.7968 177.494 7.44382 171.801 7.44382H167.714V23.8439ZM161.984 2.63281H173.225C179.976 2.63281 185.049 6.86031 185.049 15.4983C185.049 23.0422 181.18 28.6551 173.225 28.6551H161.984V2.63281Z" fill="url(#paint16_linear_1049_20378)"/>
<path d="M167.714 23.8439H172.823C176.144 23.8439 179.319 21.8033 179.319 16.0448C179.319 10.7968 177.494 7.44382 171.801 7.44382H167.714V23.8439ZM161.984 2.63281H173.225C179.976 2.63281 185.049 6.86031 185.049 15.4983C185.049 23.0422 181.18 28.6551 173.225 28.6551H161.984V2.63281Z" fill="url(#paint17_linear_1049_20378)"/>
<path d="M188.578 2.63281H194.308V28.6551H188.578V2.63281Z" fill="url(#paint18_linear_1049_20378)"/>
<path d="M188.578 2.63281H194.308V28.6551H188.578V2.63281Z" fill="url(#paint19_linear_1049_20378)"/>
<path d="M205.503 18.5958H212.254L208.969 9.04731H208.897L205.503 18.5958ZM206.05 2.63281H211.926L221.671 28.6551H215.722L213.751 22.8599H204.006L201.962 28.6551H196.16L206.05 2.63281Z" fill="url(#paint20_linear_1049_20378)"/>
<path d="M205.503 18.5958H212.254L208.969 9.04731H208.897L205.503 18.5958ZM206.05 2.63281H211.926L221.671 28.6551H215.722L213.751 22.8599H204.006L201.962 28.6551H196.16L206.05 2.63281Z" fill="url(#paint21_linear_1049_20378)"/>
<path d="M223.566 2.63281H229.259L240.134 20.0898H240.208V2.63281H245.573V28.6551H239.843L229.004 11.2343H228.93V28.6551H223.566V2.63281Z" fill="url(#paint22_linear_1049_20378)"/>
<path d="M223.566 2.63281H229.259L240.134 20.0898H240.208V2.63281H245.573V28.6551H239.843L229.004 11.2343H228.93V28.6551H223.566V2.63281Z" fill="url(#paint23_linear_1049_20378)"/>
<path d="M249.294 3.24088H248.062V2.79688H249.561H251.059V3.24088H249.822V6.83887H249.294V3.24088Z" fill="url(#paint24_linear_1049_20378)"/>
<path d="M249.294 3.24088H248.062V2.79688H249.561H251.059V3.24088H249.822V6.83887H249.294V3.24088Z" fill="url(#paint25_linear_1049_20378)"/>
<path d="M254.921 5.06387C254.891 4.50037 254.855 3.82239 254.861 3.31889H254.843C254.705 3.79239 254.537 4.29587 254.333 4.85387L253.618 6.81487H253.222L252.568 4.88988C252.375 4.32038 252.213 3.79839 252.099 3.31889H252.087C252.075 3.82239 252.045 4.50039 252.009 5.10589L251.901 6.83887H251.402L251.685 2.79688H252.351L253.042 4.75188C253.21 5.24988 253.348 5.69387 253.45 6.11337H253.468C253.571 5.70587 253.715 5.26188 253.895 4.75188L254.615 2.79688H255.282L255.534 6.83887H255.024L254.921 5.06387Z" fill="url(#paint26_linear_1049_20378)"/>
<path d="M254.921 5.06387C254.891 4.50037 254.855 3.82239 254.861 3.31889H254.843C254.705 3.79239 254.537 4.29587 254.333 4.85387L253.618 6.81487H253.222L252.568 4.88988C252.375 4.32038 252.213 3.79839 252.099 3.31889H252.087C252.075 3.82239 252.045 4.50039 252.009 5.10589L251.901 6.83887H251.402L251.685 2.79688H252.351L253.042 4.75188C253.21 5.24988 253.348 5.69387 253.45 6.11337H253.468C253.571 5.70587 253.715 5.26188 253.895 4.75188L254.615 2.79688H255.282L255.534 6.83887H255.024L254.921 5.06387Z" fill="url(#paint27_linear_1049_20378)"/>
</g>
<defs>
<linearGradient id="paint0_linear_1049_20378" x1="0" y1="14.6372" x2="255.533" y2="14.6372" gradientUnits="userSpaceOnUse">
<stop stop-color="#2A4989"/>
<stop offset="1" stop-color="#4CA5DF"/>
</linearGradient>
<linearGradient id="paint1_linear_1049_20378" x1="127" y1="-45.7285" x2="140.52" y2="24.3562" gradientUnits="userSpaceOnUse">
<stop offset="0.321034" stop-color="#263E7E"/>
<stop offset="0.750841" stop-color="#4EABE4"/>
</linearGradient>
<linearGradient id="paint2_linear_1049_20378" x1="0.00112126" y1="14.6369" x2="255.534" y2="14.6369" gradientUnits="userSpaceOnUse">
<stop stop-color="#2A4989"/>
<stop offset="1" stop-color="#4CA5DF"/>
</linearGradient>
<linearGradient id="paint3_linear_1049_20378" x1="19.5019" y1="19.7707" x2="24.0019" y2="26.2707" gradientUnits="userSpaceOnUse">
<stop stop-color="#2A4A89"/>
<stop offset="1" stop-color="#4CA5DF"/>
</linearGradient>
<linearGradient id="paint4_linear_1049_20378" x1="0.000596164" y1="14.638" x2="255.534" y2="14.638" gradientUnits="userSpaceOnUse">
<stop stop-color="#2A4989"/>
<stop offset="1" stop-color="#4CA5DF"/>
</linearGradient>
<linearGradient id="paint5_linear_1049_20378" x1="7.50139" y1="18.2709" x2="0.00139094" y2="23.2709" gradientUnits="userSpaceOnUse">
<stop stop-color="#2A4989"/>
<stop offset="1" stop-color="#4CA5DF"/>
</linearGradient>
<linearGradient id="paint6_linear_1049_20378" x1="-0.00188782" y1="14.6373" x2="255.531" y2="14.6373" gradientUnits="userSpaceOnUse">
<stop stop-color="#2A4989"/>
<stop offset="1" stop-color="#4CA5DF"/>
</linearGradient>
<linearGradient id="paint7_linear_1049_20378" x1="127.764" y1="0.000244969" x2="127.764" y2="29.2743" gradientUnits="userSpaceOnUse">
<stop stop-color="#263E7E"/>
<stop offset="1" stop-color="#4EABE4"/>
</linearGradient>
<linearGradient id="paint8_linear_1049_20378" x1="0.00111161" y1="14.6373" x2="255.534" y2="14.6373" gradientUnits="userSpaceOnUse">
<stop stop-color="#2A4989"/>
<stop offset="1" stop-color="#4CA5DF"/>
</linearGradient>
<linearGradient id="paint9_linear_1049_20378" x1="127.764" y1="0.000244969" x2="127.764" y2="29.2743" gradientUnits="userSpaceOnUse">
<stop stop-color="#263E7E"/>
<stop offset="1" stop-color="#4EABE4"/>
</linearGradient>
<linearGradient id="paint10_linear_1049_20378" x1="-0.000798216" y1="14.6377" x2="255.532" y2="14.6377" gradientUnits="userSpaceOnUse">
<stop stop-color="#2A4989"/>
<stop offset="1" stop-color="#4CA5DF"/>
</linearGradient>
<linearGradient id="paint11_linear_1049_20378" x1="127.765" y1="0.000481825" x2="127.765" y2="29.2749" gradientUnits="userSpaceOnUse">
<stop stop-color="#263E7E"/>
<stop offset="1" stop-color="#4EABE4"/>
</linearGradient>
<linearGradient id="paint12_linear_1049_20378" x1="-0.0012861" y1="14.6373" x2="255.532" y2="14.6373" gradientUnits="userSpaceOnUse">
<stop stop-color="#2A4989"/>
<stop offset="1" stop-color="#4CA5DF"/>
</linearGradient>
<linearGradient id="paint13_linear_1049_20378" x1="127.765" y1="0.000244969" x2="127.765" y2="29.2743" gradientUnits="userSpaceOnUse">
<stop stop-color="#263E7E"/>
<stop offset="1" stop-color="#4EABE4"/>
</linearGradient>
<linearGradient id="paint14_linear_1049_20378" x1="-0.000990748" y1="14.6373" x2="255.532" y2="14.6373" gradientUnits="userSpaceOnUse">
<stop stop-color="#2A4989"/>
<stop offset="1" stop-color="#4CA5DF"/>
</linearGradient>
<linearGradient id="paint15_linear_1049_20378" x1="127.765" y1="0.000244969" x2="127.765" y2="29.2743" gradientUnits="userSpaceOnUse">
<stop stop-color="#263E7E"/>
<stop offset="1" stop-color="#4EABE4"/>
</linearGradient>
<linearGradient id="paint16_linear_1049_20378" x1="0.0003659" y1="14.6373" x2="255.533" y2="14.6373" gradientUnits="userSpaceOnUse">
<stop stop-color="#2A4989"/>
<stop offset="1" stop-color="#4CA5DF"/>
</linearGradient>
<linearGradient id="paint17_linear_1049_20378" x1="127.764" y1="0.000244969" x2="127.764" y2="29.2743" gradientUnits="userSpaceOnUse">
<stop stop-color="#263E7E"/>
<stop offset="1" stop-color="#4EABE4"/>
</linearGradient>
<linearGradient id="paint18_linear_1049_20378" x1="-0.00173256" y1="14.6373" x2="255.531" y2="14.6373" gradientUnits="userSpaceOnUse">
<stop stop-color="#2A4989"/>
<stop offset="1" stop-color="#4CA5DF"/>
</linearGradient>
<linearGradient id="paint19_linear_1049_20378" x1="127.764" y1="0.000244969" x2="127.764" y2="29.2743" gradientUnits="userSpaceOnUse">
<stop stop-color="#263E7E"/>
<stop offset="1" stop-color="#4EABE4"/>
</linearGradient>
<linearGradient id="paint20_linear_1049_20378" x1="-0.000860476" y1="14.6373" x2="255.532" y2="14.6373" gradientUnits="userSpaceOnUse">
<stop stop-color="#2A4989"/>
<stop offset="1" stop-color="#4CA5DF"/>
</linearGradient>
<linearGradient id="paint21_linear_1049_20378" x1="127.763" y1="0.000244969" x2="127.763" y2="29.2743" gradientUnits="userSpaceOnUse">
<stop stop-color="#263E7E"/>
<stop offset="1" stop-color="#4EABE4"/>
</linearGradient>
<linearGradient id="paint22_linear_1049_20378" x1="-0.00064403" y1="14.6373" x2="255.532" y2="14.6373" gradientUnits="userSpaceOnUse">
<stop stop-color="#2A4989"/>
<stop offset="1" stop-color="#4CA5DF"/>
</linearGradient>
<linearGradient id="paint23_linear_1049_20378" x1="127.765" y1="0.000244969" x2="127.765" y2="29.2743" gradientUnits="userSpaceOnUse">
<stop stop-color="#263E7E"/>
<stop offset="1" stop-color="#4EABE4"/>
</linearGradient>
<linearGradient id="paint24_linear_1049_20378" x1="0.00199584" y1="14.6369" x2="255.534" y2="14.6369" gradientUnits="userSpaceOnUse">
<stop stop-color="#2A4989"/>
<stop offset="1" stop-color="#4CA5DF"/>
</linearGradient>
<linearGradient id="paint25_linear_1049_20378" x1="247.002" y1="2.4997" x2="247.002" y2="8.99969" gradientUnits="userSpaceOnUse">
<stop stop-color="#27579D"/>
<stop offset="1" stop-color="#489CDB"/>
</linearGradient>
<linearGradient id="paint26_linear_1049_20378" x1="0.00113061" y1="14.6369" x2="255.534" y2="14.6369" gradientUnits="userSpaceOnUse">
<stop stop-color="#2A4989"/>
<stop offset="1" stop-color="#4CA5DF"/>
</linearGradient>
<linearGradient id="paint27_linear_1049_20378" x1="255.501" y1="2.4997" x2="255.501" y2="6.99969" gradientUnits="userSpaceOnUse">
<stop offset="0.169496" stop-color="#27579D"/>
<stop offset="1" stop-color="#489CDB"/>
</linearGradient>
<clipPath id="clip0_1049_20378">
<rect width="256" height="30" fill="white"/>
</clipPath>
</defs>
</svg>
